<?xml version="1.0" encoding="UTF-8" standalone="no"?><!DOCTYPE svg PUBLIC "-//W3C//DTD SVG 1.1//EN" "http://www.w3.org/Graphics/SVG/1.1/DTD/svg11.dtd"><svg width="100%" height="100%" viewBox="0 0 663 176" version="1.1" xmlns="http://www.w3.org/2000/svg" xmlns:xlink="http://www.w3.org/1999/xlink" xml:space="preserve" style="fill-rule:evenodd;clip-rule:evenodd;stroke-linejoin:round;stroke-miterlimit:1.41421;"><g><path d="M50.508,2.117c0.731,-0.714 2.171,-1.309 3.202,-1.309l25.646,0c1.037,0 1.291,0.619 0.582,1.358l-18.497,19.124c-0.706,0.728 -2.134,1.359 -3.165,1.359l-26.506,0c-1.031,0 -1.28,-0.594 -0.553,-1.323l19.291,-19.209Z" style="fill:#08b7e4;fill-rule:nonzero;"/><path d="M114.54,21.29c0.733,0.728 2.173,1.323 3.216,1.323l25.724,-0.074c1.031,0 1.28,-0.606 0.57,-1.351l-18.575,-19.071c-0.709,-0.739 -2.137,-1.334 -3.168,-1.334l-26.656,0c-1.024,0 -1.279,0.595 -0.558,1.334l19.447,19.173Z" style="fill:#08b7e4;fill-rule:nonzero;"/><path d="M86.013,2.748c0.71,-0.733 1.913,-0.763 2.647,-0.048l20.899,20.343c0.745,0.709 0.745,1.898 0.033,2.625l-21.026,21.004c-0.739,0.74 -1.925,0.74 -2.644,0l-20.161,-20.349c-0.715,-0.733 -0.715,-1.94 -0.006,-2.68l20.258,-20.895Z" style="fill:#08b7e4;fill-rule:nonzero;"/><path d="M63.524,32.617c0,-1.031 0.588,-1.273 1.315,-0.551l18.931,18.984c0.722,0.74 1.321,2.177 1.321,3.208l0,27.037c0,1.03 -0.599,1.261 -1.333,0.558l-18.845,-18.536c-0.737,-0.741 -1.347,-2.165 -1.347,-3.196l-0.042,-27.504Z" style="fill:#08b7e4;fill-rule:nonzero;"/><path d="M111.872,31.944c0,-1.025 -0.603,-1.267 -1.338,-0.545l-19.515,19.596c-0.719,0.722 -1.322,2.165 -1.334,3.196l-0.23,27.335c0,1.03 0.603,1.309 1.342,0.557l19.713,-19.191c0.759,-0.722 1.362,-2.152 1.362,-3.195l0,-27.753Z" style="fill:#08b7e4;fill-rule:nonzero;"/><path d="M25.949,29.137c0,-1.025 0.843,-1.88 1.867,-1.88l29.126,0c1.025,0 1.871,0.855 1.871,1.88l0,29.675c0,1.018 -0.846,1.886 -1.871,1.886l-29.126,0c-1.024,0 -1.867,-0.868 -1.867,-1.886l0,-29.675Z" style="fill:#08b7e4;fill-rule:nonzero;"/><path d="M31.193,66.682c-0.733,-0.728 -0.497,-1.31 0.534,-1.31l26.612,0c1.032,0 2.472,0.582 3.211,1.31l18.712,18.512c0.734,0.709 0.491,1.297 -0.533,1.297l-26.525,0c-1.025,0 -2.483,-0.588 -3.217,-1.297l-18.794,-18.512Z" style="fill:#08b7e4;fill-rule:nonzero;"/><path d="M116.807,28.918c0,-1.018 0.846,-1.867 1.883,-1.867l29.114,0c1.03,0 1.88,0.849 1.88,1.867l0,29.699c0,1.032 -0.85,1.856 -1.88,1.856l-29.114,0c-1.037,0 -1.883,-0.824 -1.883,-1.856l0,-29.699Z" style="fill:#08b7e4;fill-rule:nonzero;"/><path d="M94.866,85.248c-0.734,0.722 -0.509,1.334 0.534,1.334l26.607,0c1.036,0 2.476,-0.612 3.213,-1.334l18.716,-18.487c0.733,-0.728 0.49,-1.341 -0.552,-1.341l-26.507,0c-1.031,0 -2.483,0.613 -3.205,1.341l-18.806,18.487Z" style="fill:#08b7e4;fill-rule:nonzero;"/><path d="M116.155,118.379c0,-1.019 0.843,-1.88 1.883,-1.88l29.114,0c1.022,0 1.868,0.861 1.868,1.88l0,29.692c0,1.031 -0.846,1.874 -1.868,1.874l-29.114,0c-1.04,0 -1.883,-0.843 -1.883,-1.874l0,-29.692Z" style="fill:#08b7e4;fill-rule:nonzero;"/><path d="M94.745,92.657c-0.722,-0.714 -0.479,-1.297 0.546,-1.297l27.482,0c1.032,0 2.49,0.583 3.217,1.297l18.718,18.494c0.734,0.728 0.491,1.334 -0.533,1.334l-27.407,0c-1.037,0 -2.483,-0.606 -3.217,-1.309l-18.806,-18.519Z" style="fill:#08b7e4;fill-rule:nonzero;"/><path d="M25.867,118.609c0,-1.037 0.855,-1.88 1.88,-1.88l29.113,0c1.043,0 1.883,0.843 1.883,1.88l0,29.693c0,1.031 -0.84,1.879 -1.883,1.879l-29.113,0c-1.025,0 -1.88,-0.848 -1.88,-1.879l0,-29.693Z" style="fill:#08b7e4;fill-rule:nonzero;"/><path d="M31.315,111.072c-0.734,0.728 -0.498,1.328 0.545,1.328l26.607,0c1.025,0 2.477,-0.6 3.204,-1.328l18.706,-18.499c0.752,-0.709 0.51,-1.297 -0.515,-1.297l-26.537,0c-1.025,0 -2.483,0.588 -3.204,1.297l-18.806,18.499Z" style="fill:#08b7e4;fill-rule:nonzero;"/><path d="M85.843,130.591c0.719,-0.746 1.908,-0.765 2.638,-0.049l20.919,20.325c0.734,0.733 0.752,1.903 0.025,2.631l-21.023,21.016c-0.734,0.728 -1.906,0.728 -2.64,-0.012l-20.143,-20.33c-0.737,-0.735 -0.737,-1.935 -0.031,-2.699l20.255,-20.882Z" style="fill:#08b7e4;fill-rule:nonzero;"/><path d="M85.401,95.786c0,-1.03 -0.604,-1.273 -1.337,-0.533l-19.5,19.572c-0.722,0.74 -1.337,2.171 -1.35,3.202l-0.212,27.359c0,1.024 0.585,1.266 1.337,0.545l19.713,-19.197c0.74,-0.727 1.349,-2.158 1.349,-3.183l0,-27.765Z" style="fill:#08b7e4;fill-rule:nonzero;"/><path d="M89.661,95.786c0,-1.03 0.588,-1.26 1.315,-0.533l18.931,18.972c0.721,0.734 1.313,2.183 1.313,3.22l0,27.03c0,1.019 -0.604,1.262 -1.325,0.559l-18.861,-18.542c-0.734,-0.704 -1.337,-2.159 -1.337,-3.184l-0.036,-27.522Z" style="fill:#08b7e4;fill-rule:nonzero;"/><path d="M113.448,155.366c0.719,-0.728 2.161,-1.31 3.183,-1.31l28.059,0c1.031,0 1.298,0.588 0.58,1.334l-19.492,19.149c-0.706,0.739 -2.134,1.334 -3.177,1.334l-27.911,0c-1.024,0 -1.267,-0.595 -0.533,-1.322l19.291,-19.185Z" style="fill:#08b7e4;fill-rule:nonzero;"/><path d="M50.281,174.666c0.719,0.733 2.162,1.334 3.193,1.334l26.549,-0.091c1.042,0 1.291,-0.606 0.576,-1.334l-19.386,-19.076c-0.706,-0.751 -2.152,-1.334 -3.176,-1.334l-26.643,0c-1.056,0 -1.28,0.583 -0.559,1.316l19.446,19.185Z" style="fill:#08b7e4;fill-rule:nonzero;"/><path d="M4.696,89.268c-0.731,-0.734 -0.731,-1.934 0,-2.661l18.424,-18.525c0.718,-0.721 1.925,-0.733 2.668,-0.017l19.958,19.633c0.743,0.721 0.743,1.916 0.024,2.637l-18.727,18.718c-0.722,0.728 -1.925,0.728 -2.644,0l-19.703,-19.785Z" style="fill:#08b7e4;fill-rule:nonzero;"/><path d="M130.479,89.838c-0.776,-0.788 -0.776,-2.043 0,-2.838l19.553,-19.627c0.776,-0.782 2.043,-0.789 2.82,-0.024l20.139,19.682c0.777,0.764 0.788,2.019 0,2.807l-19.848,19.845c-0.77,0.777 -2.026,0.777 -2.802,0l-19.862,-19.845Z" style="fill:#08b7e4;fill-rule:nonzero;"/><path d="M0.227,93.676c0,-1.03 0.594,-1.279 1.334,-0.533l18.924,18.984c0.722,0.721 1.325,2.165 1.325,3.195l-0.082,29.263c0,1.043 -0.603,1.286 -1.334,0.57l-18.775,-19.046c-0.728,-0.721 -1.343,-2.152 -1.343,-3.189l-0.049,-29.244Z" style="fill:#08b7e4;fill-rule:nonzero;"/><path d="M153.743,32.259c-0.013,-1.03 0.591,-1.272 1.31,-0.539l18.945,18.984c0.712,0.728 1.304,2.177 1.304,3.208l-0.161,26.964c0,1.025 -0.597,1.268 -1.337,0.552l-19.003,-18.597c-0.739,-0.721 -1.101,-2.594 -1.101,-3.632l0.043,-26.94Z" style="fill:#08b7e4;fill-rule:nonzero;"/><path d="M20.061,64.233c0.733,-0.729 1.325,-2.178 1.325,-3.202l0,-26.886c0,-1.025 -0.603,-1.28 -1.338,-0.558l-18.699,18.264c-0.752,0.715 -1.349,2.152 -1.349,3.182l0.118,27.396c0,1.03 0.591,1.255 1.31,0.533l18.633,-18.729Z" style="fill:#08b7e4;fill-rule:nonzero;"/><path d="M173.167,127.267c0.719,-0.727 1.316,-2.171 1.316,-3.201l0,-26.861c0,-1.031 -0.615,-1.285 -1.34,-0.582l-18.703,18.264c-0.74,0.739 -1.346,2.158 -1.346,3.188l0.106,27.39c0,1.03 0.601,1.279 1.316,0.55l18.651,-18.748Z" style="fill:#08b7e4;fill-rule:nonzero;"/><path d="M235.215,120.38c-6.264,0 -12.051,-0.48 -16.999,-1.808l0,-17.723l5.906,0c1.328,2.777 2.655,6.264 3.501,9.392c2.65,1.219 6.388,2.305 10.611,2.305c4.936,0 8.314,-2.171 8.314,-7.483c0,-14.225 -28.811,-9.156 -28.811,-30.014c0,-9.762 9.04,-16.989 23.147,-16.989c5.421,0 10.729,0.472 14.828,1.557l0,16.639l-5.787,0c-1.446,-2.649 -2.526,-6.027 -3.377,-9.404c-1.808,-0.837 -4.943,-1.686 -8.195,-1.686c-4.708,0 -7.358,2.771 -7.358,6.869c0,14.341 29.056,9.648 29.056,29.778c0,11.09 -11.572,18.567 -24.836,18.567Z" style="fill:#08b7e4;fill-rule:nonzero;"/><path d="M305.709,120.616c-1.807,-2.77 -3.384,-7.112 -3.62,-10.969l-0.115,0c-2.777,5.178 -10.726,10.969 -18.446,10.969c-9.764,0 -16.64,-6.991 -16.64,-16.632c0,-10.125 13.379,-19.894 33.631,-19.894l0,-7.343c0,-6.997 -3.851,-11.696 -11.206,-11.696c-3.856,0 -6.633,1.2 -8.198,2.638c-0.848,3.019 -2.292,6.876 -4.223,10.253l-5.545,0l0,-16.269c6.027,-2.292 12.424,-3.735 21.095,-3.735c13.74,0 21.465,5.651 21.465,16.505l0,27.006c0,2.299 0.115,4.699 0.836,6.876c2.292,-0.121 4.584,-0.728 6.634,-1.206l1.807,4.82c-4.936,3.498 -10.357,6.385 -17.475,8.677Zm-5.19,-30.02c-16.026,-0.242 -20.01,5.311 -20.01,10.853c0,5.185 3.741,9.52 8.683,9.52c4.463,0 11.327,-4.093 11.327,-12.048l0,-8.325Z" style="fill:#08b7e4;fill-rule:nonzero;"/><path d="M366.446,119.422l0,-4.469c2.178,-1.449 4.954,-3.135 7.598,-3.984c0.485,-6.743 0.606,-16.152 0.606,-23.144c0,-12.661 -2.413,-20.731 -11.217,-20.731c-9.641,0 -14.709,9.532 -14.709,18.809l0,25.066c2.661,0.97 5.547,2.656 7.603,3.984l0,4.469l-30.264,0l0,-4.712c2.906,-1.692 5.913,-3.013 9.284,-3.857l0,-43.037c-2.771,-0.964 -6.149,-1.922 -9.284,-2.408l0,-4.82c5.913,-1.34 14.954,-2.056 22.309,-1.813c0,3.735 -0.243,9.041 -0.728,11.811l0.121,0.122c3.007,-7.234 10.732,-12.77 20.98,-12.77c13.133,0 19.525,8.671 19.525,26.643c0,7.834 -0.244,17.948 -0.728,26.272c3.141,0.965 6.275,2.409 8.694,3.857l0,4.712l-29.79,0Z" style="fill:#08b7e4;fill-rule:nonzero;"/><path d="M440.324,119.894c0,-3.735 0,-7.834 0.613,-12.175l-0.122,-0.116c-2.783,6.986 -10.01,13.013 -19.894,13.013c-14.231,0 -22.78,-11.454 -22.78,-28.322c0,-22.302 13.497,-33.992 32.294,-33.992c2.904,0 6.148,0.115 9.289,0.473l0,-18.924c-2.771,-0.964 -6.143,-1.807 -9.289,-2.419l0,-4.936c5.918,-1.322 14.953,-1.923 22.677,-1.686l0,79.807c2.523,0.843 5.421,1.686 8.677,2.292l0,4.937c-5.912,1.333 -13.261,2.413 -21.465,2.048Zm-0.6,-51.357c-2.886,-1.928 -6.627,-3.007 -11.332,-3.007c-10.121,0 -16.39,8.434 -16.39,24.351c0,12.648 5.057,21.464 14.103,21.464c7.476,0 13.619,-8.332 13.619,-18.936l0,-23.872Z" style="fill:#08b7e4;fill-rule:nonzero;"/><path d="M493.35,120.38c-8.072,0 -15.668,-1.079 -22.181,-2.899l0,-77.636c-2.777,-0.958 -6.027,-1.922 -9.162,-2.407l0,-4.948c5.912,-1.316 14.838,-1.922 22.545,-1.68l0,29.651c0,3.25 -0.238,6.99 -0.723,9.768l0.115,0.127c2.772,-6.645 10.254,-12.418 19.046,-12.418c14.837,0 23.151,11.569 23.151,28.323c0,21.822 -13.862,34.119 -32.791,34.119Zm4.705,-53.171c-7.47,0 -13.503,8.447 -13.503,18.937l0,23.865c2.891,1.928 6.633,3.013 11.332,3.013c10.126,0 16.395,-8.204 16.395,-24.223c0,-12.545 -5.062,-21.592 -14.224,-21.592Z" style="fill:#08b7e4;fill-rule:nonzero;"/><path d="M560.823,120.616c-17.232,0 -28.806,-10.12 -28.806,-30.02c0,-20.725 14.703,-32.543 32.426,-32.543c18.081,0 28.808,10.605 28.808,29.899c0,20.616 -14.346,32.664 -32.428,32.664Zm0.608,-53.885c-9.533,0 -15.317,7.112 -15.317,21.464c0,14.212 6.512,23.623 17.723,23.623c9.404,0 15.189,-6.991 15.189,-21.944c0,-13.982 -6.269,-23.143 -17.595,-23.143Z" style="fill:#08b7e4;fill-rule:nonzero;"/><path d="M629.499,119.422l0,-4.712c2.049,-1.085 4.82,-2.164 7.47,-3.013l-11.933,-16.759l-11.448,16.516c2.535,0.727 4.699,2.171 6.749,3.256l0,4.712l-26.516,0l0,-4.712c2.037,-1.206 5.057,-2.771 7.828,-3.371l18.815,-20.979l-17.486,-23.145c-3.008,-0.849 -6.028,-2.164 -8.32,-3.383l0,-4.699l32.185,0l0,4.699c-1.565,0.849 -4.694,2.304 -7.47,3.02l11.205,16.395l11.339,-16.274c-2.171,-0.607 -5.19,-2.171 -6.87,-3.141l0,-4.699l26.157,0l0,4.699c-2.164,1.334 -5.062,2.656 -7.949,3.498l-17.966,20.743l18.209,23.15c3.014,0.716 6.258,2.16 8.792,3.487l0,4.712l-32.791,0Z" style="fill:#08b7e4;fill-rule:nonzero;"/></g></svg>