<?xml version="1.0" encoding="UTF-8" standalone="no"?>
<!DOCTYPE svg PUBLIC "-//W3C//DTD SVG 1.1//EN" "http://www.w3.org/Graphics/SVG/1.1/DTD/svg11.dtd">
<svg width="100%" height="100%" viewBox="0 0 176 176" version="1.1" xmlns="http://www.w3.org/2000/svg" xmlns:xlink="http://www.w3.org/1999/xlink" xml:space="preserve" style="fill-rule:evenodd;clip-rule:evenodd;stroke-linejoin:round;stroke-miterlimit:1.41421;">
    <g transform="matrix(0.24,0,0,0.24,0,-0.783005)">
        <g transform="matrix(4.16667,0,0,4.16667,0,0)">
            <path d="M50.508,2.117C51.239,1.403 52.679,0.808 53.71,0.808L79.356,0.808C80.393,0.808 80.647,1.427 79.938,2.166L61.441,21.29C60.735,22.018 59.307,22.649 58.276,22.649L31.77,22.649C30.739,22.649 30.49,22.055 31.217,21.326L50.508,2.117Z" style="fill:rgb(8,183,228);fill-rule:nonzero;"/>
        </g>
        <g transform="matrix(4.16667,0,0,4.16667,0,0)">
            <path d="M114.54,21.29C115.273,22.018 116.713,22.613 117.756,22.613L143.48,22.539C144.511,22.539 144.76,21.933 144.05,21.188L125.475,2.117C124.766,1.378 123.338,0.783 122.307,0.783L95.651,0.783C94.627,0.783 94.372,1.378 95.093,2.117L114.54,21.29Z" style="fill:rgb(8,183,228);fill-rule:nonzero;"/>
        </g>
        <g transform="matrix(4.16667,0,0,4.16667,0,0)">
            <path d="M86.013,2.748C86.723,2.015 87.926,1.985 88.66,2.7L109.559,23.043C110.304,23.752 110.304,24.941 109.592,25.668L88.566,46.672C87.827,47.412 86.641,47.412 85.922,46.672L65.761,26.323C65.046,25.59 65.046,24.383 65.755,23.643L86.013,2.748Z" style="fill:rgb(8,183,228);fill-rule:nonzero;"/>
        </g>
        <g transform="matrix(4.16667,0,0,4.16667,0,0)">
            <path d="M63.524,32.617C63.524,31.586 64.112,31.344 64.839,32.066L83.77,51.05C84.492,51.79 85.091,53.227 85.091,54.258L85.091,81.295C85.091,82.325 84.492,82.556 83.758,81.853L64.913,63.317C64.176,62.576 63.566,61.152 63.566,60.121L63.524,32.617Z" style="fill:rgb(8,183,228);fill-rule:nonzero;"/>
        </g>
        <g transform="matrix(4.16667,0,0,4.16667,0,0)">
            <path d="M111.872,31.944C111.872,30.919 111.269,30.677 110.534,31.399L91.019,50.995C90.3,51.717 89.697,53.16 89.685,54.191L89.455,81.526C89.455,82.556 90.058,82.835 90.797,82.083L110.51,62.892C111.269,62.17 111.872,60.74 111.872,59.697L111.872,31.944Z" style="fill:rgb(8,183,228);fill-rule:nonzero;"/>
        </g>
        <g transform="matrix(4.16667,0,0,4.16667,0,0)">
            <path d="M25.949,29.137C25.949,28.112 26.792,27.257 27.816,27.257L56.942,27.257C57.967,27.257 58.813,28.112 58.813,29.137L58.813,58.812C58.813,59.83 57.967,60.698 56.942,60.698L27.816,60.698C26.792,60.698 25.949,59.83 25.949,58.812L25.949,29.137Z" style="fill:rgb(8,183,228);fill-rule:nonzero;"/>
        </g>
        <g transform="matrix(4.16667,0,0,4.16667,0,0)">
            <path d="M31.193,66.682C30.46,65.954 30.696,65.372 31.727,65.372L58.339,65.372C59.371,65.372 60.811,65.954 61.55,66.682L80.262,85.194C80.996,85.903 80.753,86.491 79.729,86.491L53.204,86.491C52.179,86.491 50.721,85.903 49.987,85.194L31.193,66.682Z" style="fill:rgb(8,183,228);fill-rule:nonzero;"/>
        </g>
        <g transform="matrix(4.16667,0,0,4.16667,0,0)">
            <path d="M116.807,28.918C116.807,27.9 117.653,27.051 118.69,27.051L147.804,27.051C148.834,27.051 149.684,27.9 149.684,28.918L149.684,58.617C149.684,59.649 148.834,60.473 147.804,60.473L118.69,60.473C117.653,60.473 116.807,59.649 116.807,58.617L116.807,28.918Z" style="fill:rgb(8,183,228);fill-rule:nonzero;"/>
        </g>
        <g transform="matrix(4.16667,0,0,4.16667,0,0)">
            <path d="M94.866,85.248C94.132,85.97 94.357,86.582 95.4,86.582L122.007,86.582C123.043,86.582 124.483,85.97 125.22,85.248L143.936,66.761C144.669,66.033 144.426,65.42 143.384,65.42L116.877,65.42C115.846,65.42 114.394,66.033 113.672,66.761L94.866,85.248Z" style="fill:rgb(8,183,228);fill-rule:nonzero;"/>
        </g>
        <g transform="matrix(4.16667,0,0,4.16667,0,0)">
            <path d="M116.155,118.379C116.155,117.36 116.998,116.499 118.038,116.499L147.152,116.499C148.174,116.499 149.02,117.36 149.02,118.379L149.02,148.071C149.02,149.102 148.174,149.945 147.152,149.945L118.038,149.945C116.998,149.945 116.155,149.102 116.155,148.071L116.155,118.379Z" style="fill:rgb(8,183,228);fill-rule:nonzero;"/>
        </g>
        <g transform="matrix(4.16667,0,0,4.16667,0,0)">
            <path d="M94.745,92.657C94.023,91.943 94.266,91.36 95.291,91.36L122.773,91.36C123.805,91.36 125.263,91.943 125.99,92.657L144.708,111.151C145.442,111.879 145.199,112.485 144.175,112.485L116.768,112.485C115.731,112.485 114.285,111.879 113.551,111.176L94.745,92.657Z" style="fill:rgb(8,183,228);fill-rule:nonzero;"/>
        </g>
        <g transform="matrix(4.16667,0,0,4.16667,0,0)">
            <path d="M25.867,118.609C25.867,117.572 26.722,116.729 27.747,116.729L56.86,116.729C57.903,116.729 58.743,117.572 58.743,118.609L58.743,148.302C58.743,149.333 57.903,150.181 56.86,150.181L27.747,150.181C26.722,150.181 25.867,149.333 25.867,148.302L25.867,118.609Z" style="fill:rgb(8,183,228);fill-rule:nonzero;"/>
        </g>
        <g transform="matrix(4.16667,0,0,4.16667,0,0)">
            <path d="M31.315,111.072C30.581,111.8 30.817,112.4 31.86,112.4L58.467,112.4C59.492,112.4 60.944,111.8 61.671,111.072L80.377,92.573C81.129,91.864 80.887,91.276 79.862,91.276L53.325,91.276C52.3,91.276 50.842,91.864 50.121,92.573L31.315,111.072Z" style="fill:rgb(8,183,228);fill-rule:nonzero;"/>
        </g>
        <g transform="matrix(4.16667,0,0,4.16667,0,0)">
            <path d="M85.843,130.591C86.562,129.845 87.751,129.826 88.481,130.542L109.4,150.867C110.134,151.6 110.152,152.77 109.425,153.498L88.402,174.514C87.668,175.242 86.496,175.242 85.762,174.502L65.619,154.172C64.882,153.437 64.882,152.237 65.588,151.473L85.843,130.591Z" style="fill:rgb(8,183,228);fill-rule:nonzero;"/>
        </g>
        <g transform="matrix(4.16667,0,0,4.16667,0,0)">
            <path d="M85.401,95.786C85.401,94.756 84.797,94.513 84.064,95.253L64.564,114.825C63.842,115.565 63.227,116.996 63.214,118.027L63.002,145.386C63.002,146.41 63.587,146.652 64.339,145.931L84.052,126.734C84.792,126.007 85.401,124.576 85.401,123.551L85.401,95.786Z" style="fill:rgb(8,183,228);fill-rule:nonzero;"/>
        </g>
        <g transform="matrix(4.16667,0,0,4.16667,0,0)">
            <path d="M89.661,95.786C89.661,94.756 90.249,94.526 90.976,95.253L109.907,114.225C110.628,114.959 111.22,116.408 111.22,117.445L111.22,144.475C111.22,145.494 110.616,145.737 109.895,145.034L91.034,126.492C90.3,125.788 89.697,124.333 89.697,123.308L89.661,95.786Z" style="fill:rgb(8,183,228);fill-rule:nonzero;"/>
        </g>
        <g transform="matrix(4.16667,0,0,4.16667,0,0)">
            <path d="M113.448,155.366C114.167,154.638 115.609,154.056 116.631,154.056L144.69,154.056C145.721,154.056 145.988,154.644 145.27,155.39L125.778,174.539C125.072,175.278 123.644,175.873 122.601,175.873L94.69,175.873C93.666,175.873 93.423,175.278 94.157,174.551L113.448,155.366Z" style="fill:rgb(8,183,228);fill-rule:nonzero;"/>
        </g>
        <g transform="matrix(4.16667,0,0,4.16667,0,0)">
            <path d="M50.281,174.666C51,175.399 52.443,176 53.474,176L80.023,175.909C81.065,175.909 81.314,175.303 80.599,174.575L61.213,155.499C60.507,154.748 59.061,154.165 58.037,154.165L31.394,154.165C30.338,154.165 30.114,154.748 30.835,155.481L50.281,174.666Z" style="fill:rgb(8,183,228);fill-rule:nonzero;"/>
        </g>
        <g transform="matrix(4.16667,0,0,4.16667,0,0)">
            <path d="M4.696,89.268C3.965,88.534 3.965,87.334 4.696,86.607L23.12,68.082C23.838,67.361 25.045,67.349 25.788,68.065L45.746,87.698C46.489,88.419 46.489,89.614 45.77,90.335L27.043,109.053C26.321,109.781 25.118,109.781 24.399,109.053L4.696,89.268Z" style="fill:rgb(8,183,228);fill-rule:nonzero;"/>
        </g>
        <g transform="matrix(4.16667,0,0,4.16667,0,0)">
            <path d="M130.479,89.838C129.703,89.05 129.703,87.795 130.479,87L150.032,67.373C150.808,66.591 152.075,66.584 152.852,67.349L172.991,87.031C173.768,87.795 173.779,89.05 172.991,89.838L153.143,109.683C152.373,110.46 151.117,110.46 150.341,109.683L130.479,89.838Z" style="fill:rgb(8,183,228);fill-rule:nonzero;"/>
        </g>
        <g transform="matrix(4.16667,0,0,4.16667,0,0)">
            <path d="M0.227,93.676C0.227,92.646 0.821,92.397 1.561,93.143L20.485,112.127C21.207,112.848 21.81,114.292 21.81,115.322L21.728,144.585C21.728,145.628 21.125,145.871 20.394,145.155L1.619,126.109C0.891,125.388 0.276,123.957 0.276,122.92L0.227,93.676Z" style="fill:rgb(8,183,228);fill-rule:nonzero;"/>
        </g>
        <g transform="matrix(4.16667,0,0,4.16667,0,0)">
            <path d="M153.743,32.259C153.73,31.229 154.334,30.987 155.053,31.72L173.998,50.704C174.71,51.432 175.302,52.881 175.302,53.912L175.141,80.876C175.141,81.901 174.544,82.144 173.804,81.428L154.801,62.831C154.062,62.11 153.7,60.237 153.7,59.199L153.743,32.259Z" style="fill:rgb(8,183,228);fill-rule:nonzero;"/>
        </g>
        <g transform="matrix(4.16667,0,0,4.16667,0,0)">
            <path d="M20.061,64.233C20.794,63.504 21.386,62.055 21.386,61.031L21.386,34.145C21.386,33.12 20.783,32.865 20.048,33.587L1.349,51.851C0.597,52.566 0,54.003 0,55.033L0.118,82.429C0.118,83.459 0.709,83.684 1.428,82.962L20.061,64.233Z" style="fill:rgb(8,183,228);fill-rule:nonzero;"/>
        </g>
        <g transform="matrix(4.16667,0,0,4.16667,0,0)">
            <path d="M173.167,127.267C173.886,126.54 174.483,125.096 174.483,124.066L174.483,97.205C174.483,96.174 173.868,95.92 173.143,96.623L154.44,114.887C153.7,115.626 153.094,117.045 153.094,118.075L153.2,145.465C153.2,146.495 153.801,146.744 154.516,146.015L173.167,127.267Z" style="fill:rgb(8,183,228);fill-rule:nonzero;"/>
        </g>
    </g>
</svg>
